<mxfile host="app.diagrams.net" modified="2023-12-15T08:34:44.081Z" agent="Mozilla/5.0 (Windows NT 10.0; Win64; x64) AppleWebKit/537.36 (KHTML, like Gecko) Chrome/120.0.0.0 Safari/537.36" etag="vX1rgqe9-TC1jiVHxFes" version="22.1.9" type="github">
  <diagram name="Página-1" id="PQF2N1dxmj4FgFT-7-pj">
    <mxGraphModel dx="1434" dy="3110" grid="1" gridSize="10" guides="1" tooltips="1" connect="1" arrows="1" fold="1" page="1" pageScale="1" pageWidth="827" pageHeight="1169" math="0" shadow="0">
      <root>
        <mxCell id="0" />
        <mxCell id="1" parent="0" />
        <mxCell id="7oDzX8excqVwqOyNnf67-12" value="&lt;p class=&quot;MsoNormal&quot;&gt;&lt;font color=&quot;#7ea6e0&quot;&gt;promotion&lt;/font&gt;.bonus – (&lt;font color=&quot;#7ea6e0&quot;&gt;promotion&lt;/font&gt;.bonus * &lt;font color=&quot;#7ea6e0&quot;&gt;promotion&lt;/font&gt;.discount/100)&lt;/p&gt;" style="whiteSpace=wrap;html=1;fillColor=#d5e8d4;strokeColor=#82b366;" parent="1" vertex="1">
          <mxGeometry x="740" y="-130" width="360" height="50" as="geometry" />
        </mxCell>
        <mxCell id="7oDzX8excqVwqOyNnf67-20" value="" style="edgeStyle=orthogonalEdgeStyle;rounded=0;orthogonalLoop=1;jettySize=auto;html=1;" parent="1" source="7oDzX8excqVwqOyNnf67-22" target="7oDzX8excqVwqOyNnf67-28" edge="1">
          <mxGeometry relative="1" as="geometry" />
        </mxCell>
        <mxCell id="7oDzX8excqVwqOyNnf67-21" value="Sí" style="edgeLabel;html=1;align=center;verticalAlign=middle;resizable=0;points=[];" parent="7oDzX8excqVwqOyNnf67-20" vertex="1" connectable="0">
          <mxGeometry x="-0.275" y="4" relative="1" as="geometry">
            <mxPoint as="offset" />
          </mxGeometry>
        </mxCell>
        <mxCell id="7oDzX8excqVwqOyNnf67-49" value="" style="edgeStyle=orthogonalEdgeStyle;rounded=0;orthogonalLoop=1;jettySize=auto;html=1;" parent="1" source="7oDzX8excqVwqOyNnf67-22" target="7oDzX8excqVwqOyNnf67-48" edge="1">
          <mxGeometry relative="1" as="geometry" />
        </mxCell>
        <mxCell id="7oDzX8excqVwqOyNnf67-50" value="No" style="edgeLabel;html=1;align=center;verticalAlign=middle;resizable=0;points=[];" parent="7oDzX8excqVwqOyNnf67-49" vertex="1" connectable="0">
          <mxGeometry x="0.35" y="5" relative="1" as="geometry">
            <mxPoint as="offset" />
          </mxGeometry>
        </mxCell>
        <mxCell id="7oDzX8excqVwqOyNnf67-22" value="¿Tiene promotion?" style="rhombus;whiteSpace=wrap;html=1;fillColor=#dae8fc;strokeColor=#6c8ebf;" parent="1" vertex="1">
          <mxGeometry x="30" y="-150" width="130" height="130" as="geometry" />
        </mxCell>
        <mxCell id="7oDzX8excqVwqOyNnf67-25" value="" style="edgeStyle=orthogonalEdgeStyle;rounded=0;orthogonalLoop=1;jettySize=auto;html=1;entryX=0.5;entryY=1;entryDx=0;entryDy=0;exitX=0.5;exitY=0;exitDx=0;exitDy=0;" parent="1" source="7oDzX8excqVwqOyNnf67-28" target="7oDzX8excqVwqOyNnf67-37" edge="1">
          <mxGeometry relative="1" as="geometry">
            <mxPoint x="310.36" y="-175" as="sourcePoint" />
          </mxGeometry>
        </mxCell>
        <mxCell id="7oDzX8excqVwqOyNnf67-39" value="Sï" style="edgeLabel;html=1;align=center;verticalAlign=middle;resizable=0;points=[];" parent="7oDzX8excqVwqOyNnf67-25" vertex="1" connectable="0">
          <mxGeometry x="-0.6212" y="-1" relative="1" as="geometry">
            <mxPoint as="offset" />
          </mxGeometry>
        </mxCell>
        <mxCell id="7oDzX8excqVwqOyNnf67-26" value="" style="edgeStyle=orthogonalEdgeStyle;rounded=0;orthogonalLoop=1;jettySize=auto;html=1;" parent="1" source="7oDzX8excqVwqOyNnf67-28" target="7oDzX8excqVwqOyNnf67-30" edge="1">
          <mxGeometry relative="1" as="geometry">
            <mxPoint x="370" y="-80" as="sourcePoint" />
          </mxGeometry>
        </mxCell>
        <mxCell id="7oDzX8excqVwqOyNnf67-27" value="No" style="edgeLabel;html=1;align=center;verticalAlign=middle;resizable=0;points=[];" parent="7oDzX8excqVwqOyNnf67-26" vertex="1" connectable="0">
          <mxGeometry x="-0.5048" y="-2" relative="1" as="geometry">
            <mxPoint as="offset" />
          </mxGeometry>
        </mxCell>
        <mxCell id="7oDzX8excqVwqOyNnf67-28" value="¿Tiene tierPriceEntry?" style="rhombus;whiteSpace=wrap;html=1;fillColor=#e1d5e7;strokeColor=#9673a6;" parent="1" vertex="1">
          <mxGeometry x="240" y="-150" width="130" height="130" as="geometry" />
        </mxCell>
        <mxCell id="7oDzX8excqVwqOyNnf67-29" value="&lt;font style=&quot;font-size: 12px;&quot;&gt;&lt;font color=&quot;#7ea6e0&quot;&gt;promotion&lt;/font&gt;&lt;span style=&quot;&quot; lang=&quot;EN-US&quot;&gt;.bonus – (&lt;font color=&quot;#7ea6e0&quot;&gt;promotion&lt;/font&gt;.bonus *&amp;nbsp; &lt;/span&gt;&lt;span style=&quot;&quot; lang=&quot;EN-US&quot;&gt;&lt;font color=&quot;#cc99ff&quot;&gt;tierPriceEntry&lt;/font&gt;&lt;/span&gt;&lt;span style=&quot;&quot; lang=&quot;EN-US&quot;&gt;.discount/100)&lt;/span&gt;&lt;/font&gt;" style="whiteSpace=wrap;html=1;fillColor=#d5e8d4;strokeColor=#82b366;" parent="1" vertex="1">
          <mxGeometry x="540.36" y="-230" width="265" height="50" as="geometry" />
        </mxCell>
        <mxCell id="7oDzX8excqVwqOyNnf67-35" style="edgeStyle=orthogonalEdgeStyle;rounded=0;orthogonalLoop=1;jettySize=auto;html=1;entryX=0;entryY=0.5;entryDx=0;entryDy=0;exitX=1;exitY=0.5;exitDx=0;exitDy=0;" parent="1" source="7oDzX8excqVwqOyNnf67-30" target="7oDzX8excqVwqOyNnf67-34" edge="1">
          <mxGeometry relative="1" as="geometry">
            <mxPoint x="553.905" y="78.01999999999998" as="targetPoint" />
            <Array as="points">
              <mxPoint x="540" y="-80" />
              <mxPoint x="640" y="-80" />
              <mxPoint x="640" y="-25" />
            </Array>
            <mxPoint x="570" y="-80" as="sourcePoint" />
          </mxGeometry>
        </mxCell>
        <mxCell id="7oDzX8excqVwqOyNnf67-36" value="No" style="edgeLabel;html=1;align=center;verticalAlign=middle;resizable=0;points=[];" parent="7oDzX8excqVwqOyNnf67-35" vertex="1" connectable="0">
          <mxGeometry x="0.1372" y="1" relative="1" as="geometry">
            <mxPoint as="offset" />
          </mxGeometry>
        </mxCell>
        <mxCell id="yF8zC-Vedh16o82l2wIE-4" style="edgeStyle=orthogonalEdgeStyle;rounded=0;orthogonalLoop=1;jettySize=auto;html=1;entryX=0;entryY=0.5;entryDx=0;entryDy=0;" edge="1" parent="1" source="7oDzX8excqVwqOyNnf67-30" target="7oDzX8excqVwqOyNnf67-12">
          <mxGeometry relative="1" as="geometry">
            <Array as="points">
              <mxPoint x="640" y="-85" />
              <mxPoint x="640" y="-105" />
            </Array>
          </mxGeometry>
        </mxCell>
        <mxCell id="yF8zC-Vedh16o82l2wIE-5" value="Sí" style="edgeLabel;html=1;align=center;verticalAlign=middle;resizable=0;points=[];" vertex="1" connectable="0" parent="yF8zC-Vedh16o82l2wIE-4">
          <mxGeometry x="-0.4842" relative="1" as="geometry">
            <mxPoint x="43" y="-25" as="offset" />
          </mxGeometry>
        </mxCell>
        <mxCell id="7oDzX8excqVwqOyNnf67-30" value="&lt;h1 style=&quot;border-color: var(--border-color); text-align: left;&quot;&gt;&lt;font style=&quot;font-size: 12px;&quot;&gt;[CondiciónMarcas]&lt;/font&gt;&lt;/h1&gt;" style="rhombus;whiteSpace=wrap;html=1;fillColor=#fff2cc;strokeColor=#d6b656;" parent="1" vertex="1">
          <mxGeometry x="431.07" y="-122.5" width="109.29" height="75" as="geometry" />
        </mxCell>
        <mxCell id="7oDzX8excqVwqOyNnf67-31" value="&lt;h1&gt;[CondiciónMarcas]&lt;/h1&gt;&lt;p&gt;product.Brand.codMyrtus == ‘T114’ &amp;amp;&amp;amp; account.userType contains (‘@’)) || (product.Brand.codMyrtus == ‘T004’ &amp;amp;&amp;amp; account.userType contains (‘#’)&lt;br&gt;&lt;/p&gt;" style="text;html=1;strokeColor=#d6b656;fillColor=#fff2cc;spacing=5;spacingTop=-20;whiteSpace=wrap;overflow=hidden;rounded=0;" parent="1" vertex="1">
          <mxGeometry x="44" y="-460" width="740" height="100" as="geometry" />
        </mxCell>
        <mxCell id="7oDzX8excqVwqOyNnf67-34" value="&lt;p class=&quot;MsoNormal&quot;&gt;&lt;font color=&quot;#7ea6e0&quot;&gt;promotion&lt;/font&gt;.bonus –&lt;br&gt;(&lt;font color=&quot;#7ea6e0&quot;&gt;promotion&lt;/font&gt;.bonus * &lt;font color=&quot;#7ea6e0&quot;&gt;promotion&lt;/font&gt;.discount/100) – product.contributionPrice –&lt;br&gt;product.promoPrice&lt;br&gt;&lt;/p&gt;" style="whiteSpace=wrap;html=1;fillColor=#d5e8d4;strokeColor=#82b366;" parent="1" vertex="1">
          <mxGeometry x="744" y="-60" width="265" height="70" as="geometry" />
        </mxCell>
        <mxCell id="7oDzX8excqVwqOyNnf67-40" style="edgeStyle=orthogonalEdgeStyle;rounded=0;orthogonalLoop=1;jettySize=auto;html=1;entryX=0;entryY=0.5;entryDx=0;entryDy=0;" parent="1" source="7oDzX8excqVwqOyNnf67-37" target="7oDzX8excqVwqOyNnf67-29" edge="1">
          <mxGeometry relative="1" as="geometry" />
        </mxCell>
        <mxCell id="7oDzX8excqVwqOyNnf67-41" value="No" style="edgeLabel;html=1;align=center;verticalAlign=middle;resizable=0;points=[];" parent="7oDzX8excqVwqOyNnf67-40" vertex="1" connectable="0">
          <mxGeometry x="0.0517" y="5" relative="1" as="geometry">
            <mxPoint as="offset" />
          </mxGeometry>
        </mxCell>
        <mxCell id="7oDzX8excqVwqOyNnf67-42" style="edgeStyle=orthogonalEdgeStyle;rounded=0;orthogonalLoop=1;jettySize=auto;html=1;entryX=0;entryY=0.6;entryDx=0;entryDy=0;entryPerimeter=0;" parent="1" source="7oDzX8excqVwqOyNnf67-37" target="7oDzX8excqVwqOyNnf67-43" edge="1">
          <mxGeometry relative="1" as="geometry">
            <mxPoint x="540.36" y="-300" as="targetPoint" />
          </mxGeometry>
        </mxCell>
        <mxCell id="7oDzX8excqVwqOyNnf67-45" value="Sí" style="edgeLabel;html=1;align=center;verticalAlign=middle;resizable=0;points=[];" parent="7oDzX8excqVwqOyNnf67-42" vertex="1" connectable="0">
          <mxGeometry x="0.4059" y="-1" relative="1" as="geometry">
            <mxPoint as="offset" />
          </mxGeometry>
        </mxCell>
        <mxCell id="7oDzX8excqVwqOyNnf67-37" value="promotion.bonus&amp;lt;0" style="rhombus;whiteSpace=wrap;html=1;fillColor=#dae8fc;strokeColor=#6c8ebf;" parent="1" vertex="1">
          <mxGeometry x="340.36" y="-300" width="134" height="90" as="geometry" />
        </mxCell>
        <mxCell id="7oDzX8excqVwqOyNnf67-43" value="&lt;p class=&quot;MsoNormal&quot;&gt;&lt;font face=&quot;Helvetica&quot;&gt;&lt;font color=&quot;#7ea6e0&quot;&gt;promotion&lt;/font&gt;&lt;span style=&quot;&quot; lang=&quot;EN-US&quot;&gt;.bonus&lt;br&gt;+ &lt;font color=&quot;#cc99ff&quot;&gt;tierPriceEntry&lt;/font&gt;.price&lt;/span&gt;&lt;/font&gt;&lt;span style=&quot;font-family:Montserrat;&lt;br/&gt;color:red;mso-ansi-language:EN-US;mso-fareast-language:ES&quot; lang=&quot;EN-US&quot;&gt;&lt;/span&gt;&lt;/p&gt;" style="whiteSpace=wrap;html=1;fillColor=#d5e8d4;strokeColor=#82b366;" parent="1" vertex="1">
          <mxGeometry x="540.36" y="-320" width="265" height="50" as="geometry" />
        </mxCell>
        <mxCell id="7oDzX8excqVwqOyNnf67-46" value="aquí no miramos la condición de las marcas?" style="text;html=1;strokeColor=none;fillColor=none;align=center;verticalAlign=middle;whiteSpace=wrap;rounded=0;fontColor=#FF7308;" parent="1" vertex="1">
          <mxGeometry x="830.36" y="-220" width="60" height="30" as="geometry" />
        </mxCell>
        <mxCell id="7oDzX8excqVwqOyNnf67-52" value="" style="edgeStyle=orthogonalEdgeStyle;rounded=0;orthogonalLoop=1;jettySize=auto;html=1;entryX=0;entryY=0.5;entryDx=0;entryDy=0;" parent="1" source="7oDzX8excqVwqOyNnf67-48" target="yF8zC-Vedh16o82l2wIE-6" edge="1">
          <mxGeometry relative="1" as="geometry">
            <mxPoint x="230" y="285" as="targetPoint" />
          </mxGeometry>
        </mxCell>
        <mxCell id="7oDzX8excqVwqOyNnf67-56" value="Sí" style="edgeLabel;html=1;align=center;verticalAlign=middle;resizable=0;points=[];" parent="7oDzX8excqVwqOyNnf67-52" vertex="1" connectable="0">
          <mxGeometry x="0.125" y="3" relative="1" as="geometry">
            <mxPoint as="offset" />
          </mxGeometry>
        </mxCell>
        <mxCell id="7oDzX8excqVwqOyNnf67-48" value="¿Tiene discount?" style="rhombus;whiteSpace=wrap;html=1;fillColor=#f8cecc;strokeColor=#b85450;" parent="1" vertex="1">
          <mxGeometry x="30" y="220" width="130" height="130" as="geometry" />
        </mxCell>
        <mxCell id="7oDzX8excqVwqOyNnf67-54" value="" style="edgeStyle=orthogonalEdgeStyle;rounded=0;orthogonalLoop=1;jettySize=auto;html=1;" parent="1" target="7oDzX8excqVwqOyNnf67-53" edge="1">
          <mxGeometry relative="1" as="geometry">
            <mxPoint x="800" y="695" as="sourcePoint" />
          </mxGeometry>
        </mxCell>
        <mxCell id="7oDzX8excqVwqOyNnf67-55" value="Sí" style="edgeLabel;html=1;align=center;verticalAlign=middle;resizable=0;points=[];" parent="7oDzX8excqVwqOyNnf67-54" vertex="1" connectable="0">
          <mxGeometry x="-0.1294" y="1" relative="1" as="geometry">
            <mxPoint as="offset" />
          </mxGeometry>
        </mxCell>
        <mxCell id="7oDzX8excqVwqOyNnf67-57" style="edgeStyle=orthogonalEdgeStyle;rounded=0;orthogonalLoop=1;jettySize=auto;html=1;exitX=0.5;exitY=1;exitDx=0;exitDy=0;" parent="1" edge="1">
          <mxGeometry relative="1" as="geometry">
            <mxPoint x="780" y="875" as="targetPoint" />
            <mxPoint x="735" y="760" as="sourcePoint" />
          </mxGeometry>
        </mxCell>
        <mxCell id="7oDzX8excqVwqOyNnf67-51" value="&lt;h1 style=&quot;border-color: var(--border-color); text-align: left;&quot;&gt;&lt;font style=&quot;border-color: var(--border-color); font-size: 12px;&quot;&gt;[CondiciónMarcas]&lt;/font&gt;&lt;/h1&gt;" style="rhombus;whiteSpace=wrap;html=1;fillColor=#fff2cc;strokeColor=#d6b656;" parent="1" vertex="1">
          <mxGeometry x="590" y="640" width="130" height="130" as="geometry" />
        </mxCell>
        <mxCell id="7oDzX8excqVwqOyNnf67-53" value="(product.pvp de tarifa de 0 a 5) + contributionPrice&amp;nbsp; + promoPrice&amp;nbsp;" style="whiteSpace=wrap;html=1;fillColor=#d5e8d4;strokeColor=#82b366;" parent="1" vertex="1">
          <mxGeometry x="890" y="665" width="245" height="60" as="geometry" />
        </mxCell>
        <mxCell id="yF8zC-Vedh16o82l2wIE-1" value="&lt;h1 style=&quot;line-height: 50%; font-size: 13px;&quot;&gt;&lt;font style=&quot;font-size: 13px;&quot;&gt;&lt;br&gt;&lt;/font&gt;&lt;/h1&gt;&lt;div style=&quot;line-height: 50%; font-size: 13px;&quot;&gt;&lt;font style=&quot;font-size: 13px;&quot;&gt;&amp;lt;tierPriceEntry&amp;gt;&lt;/font&gt;&lt;/div&gt;&lt;h1 style=&quot;line-height: 50%; font-size: 13px;&quot;&gt;&lt;span style=&quot;font-weight: 400;&quot;&gt;&lt;font style=&quot;font-size: 13px;&quot;&gt;&amp;nbsp; &amp;lt;codMyrtus&amp;gt;31073&amp;lt;/codMyrtus&amp;gt;&lt;/font&gt;&lt;/span&gt;&lt;/h1&gt;&lt;h1 style=&quot;line-height: 50%; font-size: 13px;&quot;&gt;&lt;span style=&quot;font-weight: 400;&quot;&gt;&lt;font style=&quot;font-size: 13px;&quot;&gt;&amp;nbsp; &amp;lt;!-- Nivel de Unidades a partir del cual se aplica el precio --&amp;gt;&lt;/font&gt;&lt;/span&gt;&lt;/h1&gt;&lt;h1 style=&quot;line-height: 50%; font-size: 13px;&quot;&gt;&lt;span style=&quot;font-weight: 400;&quot;&gt;&lt;font style=&quot;font-size: 13px;&quot;&gt;&amp;nbsp; &amp;lt;tierUnits&amp;gt;10&amp;lt;/tierUnits&amp;gt;&lt;/font&gt;&lt;/span&gt;&lt;/h1&gt;&lt;h1 style=&quot;line-height: 50%; font-size: 13px;&quot;&gt;&lt;span style=&quot;font-weight: 400;&quot;&gt;&lt;font style=&quot;font-size: 13px;&quot;&gt;&amp;nbsp; &amp;lt;!-- Precio Base. Las ofertas y los descuentos que se tengan que aplicar se aplican sobre este precio Base --&amp;gt;&lt;/font&gt;&lt;/span&gt;&lt;/h1&gt;&lt;h1 style=&quot;line-height: 50%; font-size: 13px;&quot;&gt;&lt;span style=&quot;font-weight: 400;&quot;&gt;&lt;font style=&quot;font-size: 13px;&quot;&gt;&amp;nbsp; &amp;lt;price&amp;gt;1500.15&amp;lt;/price&amp;gt;&lt;/font&gt;&lt;/span&gt;&lt;/h1&gt;&lt;h1 style=&quot;line-height: 50%; font-size: 13px;&quot;&gt;&lt;span style=&quot;font-weight: 400;&quot;&gt;&lt;font style=&quot;font-size: 13px;&quot;&gt;&amp;nbsp; &amp;lt;!-- Tipo de usuario --&amp;gt;&lt;/font&gt;&lt;/span&gt;&lt;/h1&gt;&lt;h1 style=&quot;line-height: 50%; font-size: 13px;&quot;&gt;&lt;span style=&quot;font-weight: 400;&quot;&gt;&lt;font style=&quot;font-size: 13px;&quot;&gt;&amp;nbsp; &amp;lt;!-- El precio se aplica a los clientes que tengan el mismo valor en el campo &quot;filtro de clientes&quot; en la tabla usuarios --&amp;gt;&lt;/font&gt;&lt;/span&gt;&lt;/h1&gt;&lt;h1 style=&quot;line-height: 50%; font-size: 13px;&quot;&gt;&lt;span style=&quot;font-weight: 400;&quot;&gt;&lt;font style=&quot;font-size: 13px;&quot;&gt;&amp;nbsp; &amp;lt;!-- si userType=0 el precio del tramo se aplica a todos los clientes --&amp;gt;&lt;/font&gt;&lt;/span&gt;&lt;/h1&gt;&lt;h1 style=&quot;line-height: 50%; font-size: 13px;&quot;&gt;&lt;span style=&quot;font-weight: 400;&quot;&gt;&lt;font style=&quot;font-size: 13px;&quot;&gt;&amp;nbsp; &amp;lt;userType&amp;gt;9&amp;lt;/userType&amp;gt;&lt;/font&gt;&lt;/span&gt;&lt;/h1&gt;&lt;h1 style=&quot;line-height: 50%; font-size: 13px;&quot;&gt;&lt;span style=&quot;font-weight: 400;&quot;&gt;&lt;font style=&quot;font-size: 13px;&quot;&gt;&amp;nbsp; &amp;lt;!-- Descuento --&amp;gt;&lt;/font&gt;&lt;/span&gt;&lt;/h1&gt;&lt;h1 style=&quot;line-height: 50%; font-size: 13px;&quot;&gt;&lt;span style=&quot;font-weight: 400;&quot;&gt;&lt;font style=&quot;font-size: 13px;&quot;&gt;&amp;nbsp; &amp;lt;discount&amp;gt;0&amp;lt;/discount&amp;gt;&lt;/font&gt;&lt;/span&gt;&lt;/h1&gt;&lt;h1 style=&quot;line-height: 50%; font-size: 13px;&quot;&gt;&lt;span style=&quot;font-weight: 400;&quot;&gt;&lt;font style=&quot;font-size: 13px;&quot;&gt;&amp;lt;/tierPriceEntry&amp;gt;&lt;/font&gt;&lt;/span&gt;&lt;/h1&gt;&lt;div style=&quot;line-height: 50%; font-size: 13px;&quot;&gt;&lt;br&gt;&lt;/div&gt;" style="text;html=1;strokeColor=#9673a6;fillColor=#e1d5e7;spacing=5;spacingTop=-20;whiteSpace=wrap;overflow=hidden;rounded=0;" vertex="1" parent="1">
          <mxGeometry x="44" y="-690" width="700" height="210" as="geometry" />
        </mxCell>
        <mxCell id="yF8zC-Vedh16o82l2wIE-2" value="&lt;h1 style=&quot;font-size: 13px; line-height: 10%;&quot;&gt;&lt;span style=&quot;background-color: initial; font-weight: normal;&quot;&gt;&lt;br&gt;&lt;/span&gt;&lt;/h1&gt;&lt;h1 style=&quot;font-size: 13px; line-height: 10%;&quot;&gt;&lt;span style=&quot;background-color: initial; font-weight: normal;&quot;&gt;&amp;lt;promotion&amp;gt;&lt;/span&gt;&lt;br&gt;&lt;/h1&gt;&lt;p style=&quot;font-size: 13px; line-height: 10%;&quot;&gt;&lt;font style=&quot;font-size: 13px;&quot;&gt;&amp;nbsp; &amp;lt;!-- tipo de usuario string&amp;lt;20&amp;gt; --&amp;gt;&lt;/font&gt;&lt;/p&gt;&lt;p style=&quot;font-size: 13px; line-height: 10%;&quot;&gt;&lt;font style=&quot;font-size: 13px;&quot;&gt;&amp;nbsp; &amp;lt;userType&amp;gt;003963&amp;lt;/userType&amp;gt;&lt;/font&gt;&lt;/p&gt;&lt;p style=&quot;font-size: 13px; line-height: 10%;&quot;&gt;&lt;font style=&quot;font-size: 13px;&quot;&gt;&amp;nbsp; &amp;lt;!-- tipo de articulos string&amp;lt;20&amp;gt; --&amp;gt;&lt;/font&gt;&lt;/p&gt;&lt;p style=&quot;font-size: 13px; line-height: 10%;&quot;&gt;&lt;font style=&quot;font-size: 13px;&quot;&gt;&amp;nbsp; &amp;lt;!-- identifica el articulo o grupo de artículos. Está formateado de la siguiente forma: &amp;lt;ff aaaabbbbccccdddd&amp;gt; --&amp;gt;&lt;/font&gt;&lt;/p&gt;&lt;p style=&quot;font-size: 13px; line-height: 10%;&quot;&gt;&lt;font style=&quot;font-size: 13px;&quot;&gt;&amp;nbsp; &amp;lt;!-- ff: (2 dígitos) cód. family --&amp;gt;&lt;/font&gt;&lt;/p&gt;&lt;p style=&quot;font-size: 13px; line-height: 10%;&quot;&gt;&lt;font style=&quot;font-size: 13px;&quot;&gt;&amp;nbsp; &amp;lt;!-- aaaa: (4 dígitos) cód. marca --&amp;gt;&lt;/font&gt;&lt;/p&gt;&lt;p style=&quot;font-size: 13px; line-height: 10%;&quot;&gt;&lt;font style=&quot;font-size: 13px;&quot;&gt;&amp;nbsp; &amp;lt;!-- bbbb: (4 dígitos) cód. subfamily --&amp;gt;&lt;/font&gt;&lt;/p&gt;&lt;p style=&quot;font-size: 13px; line-height: 10%;&quot;&gt;&lt;font style=&quot;font-size: 13px;&quot;&gt;&amp;nbsp; &amp;lt;!-- cccc: (4 dígitos) priceModulator1 --&amp;gt;&lt;/font&gt;&lt;/p&gt;&lt;p style=&quot;font-size: 13px; line-height: 10%;&quot;&gt;&lt;font style=&quot;font-size: 13px;&quot;&gt;&amp;nbsp; &amp;lt;!-- dddd: (4 dígitos) priceModultaor2 --&amp;gt;&lt;/font&gt;&lt;/p&gt;&lt;p style=&quot;font-size: 13px; line-height: 10%;&quot;&gt;&lt;font style=&quot;font-size: 13px;&quot;&gt;&amp;nbsp; &amp;lt;productType&amp;gt;0&amp;lt;/productType&amp;gt;&lt;/font&gt;&lt;/p&gt;&lt;p style=&quot;font-size: 13px; line-height: 10%;&quot;&gt;&lt;font style=&quot;font-size: 13px;&quot;&gt;&amp;nbsp; &amp;lt;codMyrtus&amp;gt;30959&amp;lt;/codMyrtus&amp;gt;&lt;/font&gt;&lt;/p&gt;&lt;p style=&quot;font-size: 13px; line-height: 10%;&quot;&gt;&lt;font style=&quot;font-size: 13px;&quot;&gt;&amp;nbsp; &amp;lt;discount&amp;gt;2.5&amp;lt;/discount&amp;gt;&lt;/font&gt;&lt;/p&gt;&lt;p style=&quot;font-size: 13px; line-height: 10%;&quot;&gt;&lt;font style=&quot;font-size: 13px;&quot;&gt;&amp;nbsp; &amp;lt;bonus&amp;gt;0&amp;lt;/bonus&amp;gt;&lt;/font&gt;&lt;/p&gt;&lt;p style=&quot;font-size: 13px; line-height: 10%;&quot;&gt;&lt;font style=&quot;font-size: 13px;&quot;&gt;&amp;nbsp; &amp;lt;!-- Periodo de fechas en el que la oferta está en vigor --&amp;gt;&lt;/font&gt;&lt;/p&gt;&lt;p style=&quot;font-size: 13px; line-height: 10%;&quot;&gt;&lt;font style=&quot;font-size: 13px;&quot;&gt;&amp;nbsp; &amp;lt;daySince&amp;gt;2023-02-15T00:00:00&amp;lt;/daySince&amp;gt;&lt;/font&gt;&lt;/p&gt;&lt;p style=&quot;font-size: 13px; line-height: 10%;&quot;&gt;&lt;font style=&quot;font-size: 13px;&quot;&gt;&amp;nbsp; &amp;lt;dayUntil&amp;gt;2023-03-15T00:00:00&amp;lt;/dayUntil&amp;gt;&lt;/font&gt;&lt;/p&gt;&lt;p style=&quot;font-size: 13px; line-height: 10%;&quot;&gt;&lt;font style=&quot;font-size: 13px;&quot;&gt;&amp;nbsp; &amp;lt;!-- Indica porcentaje del stock real que tiene asignados los clientes y productos --&amp;gt;&lt;/font&gt;&lt;/p&gt;&lt;p style=&quot;font-size: 13px; line-height: 10%;&quot;&gt;&lt;font style=&quot;font-size: 13px;&quot;&gt;&amp;nbsp; &amp;lt;percentStock&amp;gt;0&amp;lt;/percentStock&amp;gt;&lt;/font&gt;&lt;/p&gt;&lt;p style=&quot;font-size: 13px; line-height: 10%;&quot;&gt;&lt;font style=&quot;font-size: 13px;&quot;&gt;&amp;lt;/promotion&amp;gt;&lt;/font&gt;&lt;/p&gt;&lt;div style=&quot;font-size: 13px; line-height: 10%;&quot;&gt;&lt;br&gt;&lt;/div&gt;" style="text;html=1;strokeColor=#6c8ebf;fillColor=#dae8fc;spacing=5;spacingTop=-20;whiteSpace=wrap;overflow=hidden;rounded=0;" vertex="1" parent="1">
          <mxGeometry x="44" y="-1000" width="700" height="290" as="geometry" />
        </mxCell>
        <mxCell id="yF8zC-Vedh16o82l2wIE-3" value="&lt;h1 style=&quot;line-height: 20%; font-size: 13px;&quot;&gt;&lt;p class=&quot;MsoNormal&quot;&gt;&lt;br&gt;&lt;/p&gt;&lt;p class=&quot;MsoNormal&quot;&gt;&amp;lt;discount&amp;gt;&lt;/p&gt;&lt;p class=&quot;MsoNormal&quot;&gt;&amp;nbsp; &amp;lt;!-- id tipo string --&amp;gt;&lt;/p&gt;&lt;p class=&quot;MsoNormal&quot;&gt;&amp;nbsp; &amp;lt;id&amp;gt;003153-56 T143************&amp;lt;/id&amp;gt;&lt;/p&gt;&lt;p class=&quot;MsoNormal&quot;&gt;&amp;nbsp; &amp;lt;!-- tipo de usuario string&amp;lt;20&amp;gt; --&amp;gt;&lt;/p&gt;&lt;p class=&quot;MsoNormal&quot;&gt;&amp;nbsp; &amp;lt;userType&amp;gt;003153&amp;lt;/userType&amp;gt;&lt;/p&gt;&lt;p class=&quot;MsoNormal&quot;&gt;&amp;nbsp; &amp;lt;!-- tipo de articulos string&amp;lt;20&amp;gt; --&amp;gt;&lt;/p&gt;&lt;p class=&quot;MsoNormal&quot;&gt;&amp;nbsp; &amp;lt;!-- identifica el articulo o grupo de artículos. Está formateado de la siguiente forma: &amp;lt;ff aaaabbbbccccdddd&amp;gt; --&amp;gt;&lt;/p&gt;&lt;p class=&quot;MsoNormal&quot;&gt;&amp;nbsp; &amp;lt;!-- ff: (2 dígitos) cód. family --&amp;gt;&lt;/p&gt;&lt;p class=&quot;MsoNormal&quot;&gt;&amp;nbsp; &amp;lt;!-- aaaa: (4 dígitos) cód. marca --&amp;gt;&lt;/p&gt;&lt;p class=&quot;MsoNormal&quot;&gt;&amp;nbsp; &amp;lt;!-- bbbb: (4 dígitos) cód. subfamily --&amp;gt;&lt;/p&gt;&lt;p class=&quot;MsoNormal&quot;&gt;&amp;nbsp; &amp;lt;!-- cccc: (4 dígitos) priceModulator1 --&amp;gt;&lt;/p&gt;&lt;p class=&quot;MsoNormal&quot;&gt;&amp;nbsp; &amp;lt;!-- dddd: (4 dígitos) priceModulator2 --&amp;gt;&lt;/p&gt;&lt;p class=&quot;MsoNormal&quot;&gt;&amp;nbsp; &amp;lt;productType&amp;gt;56 T143************&amp;lt;/productType&amp;gt;&lt;/p&gt;&lt;p class=&quot;MsoNormal&quot;&gt;&amp;nbsp; &amp;lt;!-- descuento --&amp;gt;&lt;/p&gt;&lt;p class=&quot;MsoNormal&quot;&gt;&amp;nbsp; &amp;lt;discount&amp;gt;3&amp;lt;/discount&amp;gt;&lt;/p&gt;&lt;p class=&quot;MsoNormal&quot;&gt;&amp;nbsp; &amp;lt;!-- bonificacion --&amp;gt;&lt;/p&gt;&lt;p class=&quot;MsoNormal&quot;&gt;&amp;nbsp; &amp;lt;bonus&amp;gt;0&amp;lt;/bonus&amp;gt;&lt;/p&gt;&lt;p class=&quot;MsoNormal&quot;&gt;&amp;lt;/discount&amp;gt;&lt;/p&gt;&lt;div&gt;&lt;br&gt;&lt;/div&gt;&lt;/h1&gt;" style="text;html=1;strokeColor=#b85450;fillColor=#f8cecc;spacing=5;spacingTop=-20;whiteSpace=wrap;overflow=hidden;rounded=0;" vertex="1" parent="1">
          <mxGeometry x="770" y="-840" width="700" height="360" as="geometry" />
        </mxCell>
        <mxCell id="yF8zC-Vedh16o82l2wIE-44" style="edgeStyle=orthogonalEdgeStyle;rounded=0;orthogonalLoop=1;jettySize=auto;html=1;entryX=0;entryY=0.5;entryDx=0;entryDy=0;" edge="1" parent="1" source="yF8zC-Vedh16o82l2wIE-6" target="yF8zC-Vedh16o82l2wIE-42">
          <mxGeometry relative="1" as="geometry" />
        </mxCell>
        <mxCell id="yF8zC-Vedh16o82l2wIE-45" value="Sï" style="edgeLabel;html=1;align=center;verticalAlign=middle;resizable=0;points=[];" vertex="1" connectable="0" parent="yF8zC-Vedh16o82l2wIE-44">
          <mxGeometry x="0.2618" y="3" relative="1" as="geometry">
            <mxPoint as="offset" />
          </mxGeometry>
        </mxCell>
        <mxCell id="yF8zC-Vedh16o82l2wIE-6" value="¿Tiene tierPriceEntry?" style="rhombus;whiteSpace=wrap;html=1;fillColor=#e1d5e7;strokeColor=#9673a6;" vertex="1" parent="1">
          <mxGeometry x="240" y="220" width="130" height="130" as="geometry" />
        </mxCell>
        <mxCell id="yF8zC-Vedh16o82l2wIE-9" value="product.realPurchasePrice / (1 - (&lt;font color=&quot;#f19c99&quot;&gt;discount&lt;/font&gt;.discount/100))" style="whiteSpace=wrap;html=1;fillColor=#d5e8d4;strokeColor=#82b366;" vertex="1" parent="1">
          <mxGeometry x="868.8" y="325" width="360" height="50" as="geometry" />
        </mxCell>
        <mxCell id="yF8zC-Vedh16o82l2wIE-16" style="edgeStyle=orthogonalEdgeStyle;rounded=0;orthogonalLoop=1;jettySize=auto;html=1;entryX=0;entryY=0.5;entryDx=0;entryDy=0;" edge="1" parent="1" source="yF8zC-Vedh16o82l2wIE-13" target="yF8zC-Vedh16o82l2wIE-17">
          <mxGeometry relative="1" as="geometry">
            <mxPoint x="658.8" y="335" as="targetPoint" />
          </mxGeometry>
        </mxCell>
        <mxCell id="yF8zC-Vedh16o82l2wIE-26" value="Sí&lt;br&gt;" style="edgeLabel;html=1;align=center;verticalAlign=middle;resizable=0;points=[];" vertex="1" connectable="0" parent="yF8zC-Vedh16o82l2wIE-16">
          <mxGeometry x="-0.4881" relative="1" as="geometry">
            <mxPoint x="-4" y="-22" as="offset" />
          </mxGeometry>
        </mxCell>
        <mxCell id="yF8zC-Vedh16o82l2wIE-28" style="edgeStyle=orthogonalEdgeStyle;rounded=0;orthogonalLoop=1;jettySize=auto;html=1;exitX=1;exitY=0.5;exitDx=0;exitDy=0;entryX=0;entryY=0.5;entryDx=0;entryDy=0;" edge="1" parent="1" source="yF8zC-Vedh16o82l2wIE-13" target="yF8zC-Vedh16o82l2wIE-27">
          <mxGeometry relative="1" as="geometry" />
        </mxCell>
        <mxCell id="yF8zC-Vedh16o82l2wIE-29" value="No" style="edgeLabel;html=1;align=center;verticalAlign=middle;resizable=0;points=[];" vertex="1" connectable="0" parent="yF8zC-Vedh16o82l2wIE-28">
          <mxGeometry x="0.016" y="3" relative="1" as="geometry">
            <mxPoint as="offset" />
          </mxGeometry>
        </mxCell>
        <mxCell id="yF8zC-Vedh16o82l2wIE-13" value="&lt;h1 style=&quot;border-color: var(--border-color); text-align: left;&quot;&gt;&lt;font style=&quot;font-size: 12px;&quot;&gt;discount.discount&amp;gt;0&lt;/font&gt;&lt;/h1&gt;" style="rhombus;whiteSpace=wrap;html=1;fillColor=#f8cecc;strokeColor=#b85450;" vertex="1" parent="1">
          <mxGeometry x="443.16" y="350" width="168.93" height="75" as="geometry" />
        </mxCell>
        <mxCell id="yF8zC-Vedh16o82l2wIE-14" style="edgeStyle=orthogonalEdgeStyle;rounded=0;orthogonalLoop=1;jettySize=auto;html=1;entryX=-0.042;entryY=0.513;entryDx=0;entryDy=0;entryPerimeter=0;" edge="1" parent="1" source="yF8zC-Vedh16o82l2wIE-6" target="yF8zC-Vedh16o82l2wIE-13">
          <mxGeometry relative="1" as="geometry" />
        </mxCell>
        <mxCell id="yF8zC-Vedh16o82l2wIE-15" value="No" style="edgeLabel;html=1;align=center;verticalAlign=middle;resizable=0;points=[];" vertex="1" connectable="0" parent="yF8zC-Vedh16o82l2wIE-14">
          <mxGeometry x="0.311" y="-1" relative="1" as="geometry">
            <mxPoint as="offset" />
          </mxGeometry>
        </mxCell>
        <mxCell id="yF8zC-Vedh16o82l2wIE-19" style="edgeStyle=orthogonalEdgeStyle;rounded=0;orthogonalLoop=1;jettySize=auto;html=1;entryX=0;entryY=0.5;entryDx=0;entryDy=0;" edge="1" parent="1" source="yF8zC-Vedh16o82l2wIE-17" target="yF8zC-Vedh16o82l2wIE-9">
          <mxGeometry relative="1" as="geometry" />
        </mxCell>
        <mxCell id="yF8zC-Vedh16o82l2wIE-23" value="No" style="edgeLabel;html=1;align=center;verticalAlign=middle;resizable=0;points=[];" vertex="1" connectable="0" parent="yF8zC-Vedh16o82l2wIE-19">
          <mxGeometry x="0.3483" relative="1" as="geometry">
            <mxPoint as="offset" />
          </mxGeometry>
        </mxCell>
        <mxCell id="yF8zC-Vedh16o82l2wIE-21" style="edgeStyle=orthogonalEdgeStyle;rounded=0;orthogonalLoop=1;jettySize=auto;html=1;entryX=0;entryY=0.5;entryDx=0;entryDy=0;" edge="1" parent="1" source="yF8zC-Vedh16o82l2wIE-17" target="yF8zC-Vedh16o82l2wIE-20">
          <mxGeometry relative="1" as="geometry" />
        </mxCell>
        <mxCell id="yF8zC-Vedh16o82l2wIE-22" value="Sí" style="edgeLabel;html=1;align=center;verticalAlign=middle;resizable=0;points=[];" vertex="1" connectable="0" parent="yF8zC-Vedh16o82l2wIE-21">
          <mxGeometry x="0.5093" relative="1" as="geometry">
            <mxPoint as="offset" />
          </mxGeometry>
        </mxCell>
        <mxCell id="yF8zC-Vedh16o82l2wIE-17" value="&lt;h1 style=&quot;border-color: var(--border-color); text-align: left;&quot;&gt;&lt;font style=&quot;font-size: 12px;&quot;&gt;[CondiciónMarcas]&lt;/font&gt;&lt;/h1&gt;" style="rhombus;whiteSpace=wrap;html=1;fillColor=#fff2cc;strokeColor=#d6b656;" vertex="1" parent="1">
          <mxGeometry x="683.8" y="290" width="109.29" height="75" as="geometry" />
        </mxCell>
        <mxCell id="yF8zC-Vedh16o82l2wIE-20" value="&lt;p style=&quot;line-height: 0%;&quot; class=&quot;MsoNormal&quot;&gt;&lt;font face=&quot;Helvetica&quot;&gt;(product.realPurchasePrice&amp;nbsp;&lt;/font&gt;&lt;/p&gt;+ product.contributionPrice + product.promoPrice&lt;span style=&quot;background-color: initial;&quot;&gt;) / (1 - (&lt;font color=&quot;#f19c99&quot;&gt;discount&lt;/font&gt;.discount/100))&amp;nbsp;&lt;/span&gt;" style="whiteSpace=wrap;html=1;fillColor=#d5e8d4;strokeColor=#82b366;" vertex="1" parent="1">
          <mxGeometry x="868.8" y="260" width="360" height="50" as="geometry" />
        </mxCell>
        <mxCell id="yF8zC-Vedh16o82l2wIE-24" value="&lt;h1 style=&quot;line-height: 30%; font-size: 13px;&quot;&gt;&lt;font style=&quot;font-size: 13px;&quot;&gt;&amp;lt;price&amp;gt;&lt;/font&gt;&lt;/h1&gt;&lt;h1 style=&quot;line-height: 30%; font-size: 13px;&quot;&gt;&lt;span style=&quot;font-weight: 400;&quot;&gt;&lt;font style=&quot;font-size: 13px;&quot;&gt;&amp;nbsp; &amp;nbsp; &amp;lt;!-- código myrtus del producto --&amp;gt;&lt;/font&gt;&lt;/span&gt;&lt;/h1&gt;&lt;h1 style=&quot;line-height: 30%; font-size: 13px;&quot;&gt;&lt;span style=&quot;font-weight: 400;&quot;&gt;&lt;font style=&quot;font-size: 13px;&quot;&gt;&amp;nbsp; &amp;nbsp; &amp;lt;codMyrtus&amp;gt;27044&amp;lt;/codMyrtus&amp;gt;&lt;/font&gt;&lt;/span&gt;&lt;/h1&gt;&lt;h1 style=&quot;line-height: 30%; font-size: 13px;&quot;&gt;&lt;span style=&quot;font-weight: 400;&quot;&gt;&lt;font style=&quot;font-size: 13px;&quot;&gt;&lt;br&gt;&lt;/font&gt;&lt;/span&gt;&lt;/h1&gt;&lt;h1 style=&quot;line-height: 30%; font-size: 13px;&quot;&gt;&lt;span style=&quot;font-weight: 400;&quot;&gt;&lt;font style=&quot;font-size: 13px;&quot;&gt;&amp;nbsp; &amp;nbsp; &amp;lt;!-- Campos internos de precios para el calculo de la tarifa --&amp;gt;&lt;/font&gt;&lt;/span&gt;&lt;/h1&gt;&lt;h1 style=&quot;line-height: 30%; font-size: 13px;&quot;&gt;&lt;span style=&quot;font-weight: 400;&quot;&gt;&lt;font style=&quot;font-size: 13px;&quot;&gt;&amp;nbsp; &amp;nbsp; &amp;lt;!-- Precio Venta Distribuidor. Tarifa 0 --&amp;gt;&lt;/font&gt;&lt;/span&gt;&lt;/h1&gt;&lt;h1 style=&quot;line-height: 30%; font-size: 13px;&quot;&gt;&lt;span style=&quot;font-weight: 400;&quot;&gt;&lt;font style=&quot;font-size: 13px;&quot;&gt;&amp;nbsp; &amp;nbsp; &amp;lt;pvd0&amp;gt;314.56&amp;lt;/pvd0&amp;gt;&lt;/font&gt;&lt;/span&gt;&lt;/h1&gt;&lt;h1 style=&quot;line-height: 30%; font-size: 13px;&quot;&gt;&lt;span style=&quot;font-weight: 400;&quot;&gt;&lt;font style=&quot;font-size: 13px;&quot;&gt;&amp;nbsp; &amp;nbsp; &amp;lt;!-- Precio Venta Distribuidor. Tarifa 1 --&amp;gt;&lt;/font&gt;&lt;/span&gt;&lt;/h1&gt;&lt;h1 style=&quot;line-height: 30%; font-size: 13px;&quot;&gt;&lt;span style=&quot;font-weight: 400;&quot;&gt;&lt;font style=&quot;font-size: 13px;&quot;&gt;&amp;nbsp; &amp;nbsp; &amp;lt;pvd1&amp;gt;312.93&amp;lt;/pvd1&amp;gt;&lt;/font&gt;&lt;/span&gt;&lt;/h1&gt;&lt;h1 style=&quot;line-height: 30%; font-size: 13px;&quot;&gt;&lt;span style=&quot;font-weight: 400;&quot;&gt;&lt;font style=&quot;font-size: 13px;&quot;&gt;&amp;nbsp; &amp;nbsp; &amp;lt;!-- Precio Venta Distribuidor. Tarifa 2 --&amp;gt;&lt;/font&gt;&lt;/span&gt;&lt;/h1&gt;&lt;h1 style=&quot;line-height: 30%; font-size: 13px;&quot;&gt;&lt;span style=&quot;font-weight: 400;&quot;&gt;&lt;font style=&quot;font-size: 13px;&quot;&gt;&amp;nbsp; &amp;nbsp; &amp;lt;pvd2&amp;gt;317.71&amp;lt;/pvd2&amp;gt;&lt;/font&gt;&lt;/span&gt;&lt;/h1&gt;&lt;h1 style=&quot;line-height: 30%; font-size: 13px;&quot;&gt;&lt;span style=&quot;font-weight: 400;&quot;&gt;&lt;font style=&quot;font-size: 13px;&quot;&gt;&amp;nbsp; &amp;nbsp; &amp;lt;!-- Precio Venta Distribuidor. Tarifa 3 --&amp;gt;&lt;/font&gt;&lt;/span&gt;&lt;/h1&gt;&lt;h1 style=&quot;line-height: 30%; font-size: 13px;&quot;&gt;&lt;span style=&quot;font-weight: 400;&quot;&gt;&lt;font style=&quot;font-size: 13px;&quot;&gt;&amp;nbsp; &amp;nbsp; &amp;lt;pvd3&amp;gt;320.85&amp;lt;/pvd3&amp;gt;&lt;/font&gt;&lt;/span&gt;&lt;/h1&gt;&lt;h1 style=&quot;line-height: 30%; font-size: 13px;&quot;&gt;&lt;span style=&quot;font-weight: 400;&quot;&gt;&lt;font style=&quot;font-size: 13px;&quot;&gt;&amp;nbsp; &amp;nbsp; &amp;lt;!-- Precio Venta Distribuidor. Tarifa 4 --&amp;gt;&lt;/font&gt;&lt;/span&gt;&lt;/h1&gt;&lt;h1 style=&quot;line-height: 30%; font-size: 13px;&quot;&gt;&lt;span style=&quot;font-weight: 400;&quot;&gt;&lt;font style=&quot;font-size: 13px;&quot;&gt;&amp;nbsp; &amp;nbsp; &amp;lt;pvd4&amp;gt;361.74&amp;lt;/pvd4&amp;gt;&lt;/font&gt;&lt;/span&gt;&lt;/h1&gt;&lt;h1 style=&quot;line-height: 30%; font-size: 13px;&quot;&gt;&lt;span style=&quot;font-weight: 400;&quot;&gt;&lt;font style=&quot;font-size: 13px;&quot;&gt;&amp;nbsp; &amp;nbsp; &amp;lt;!-- Precio Venta Distribuidor. Tarifa 5 --&amp;gt;&lt;/font&gt;&lt;/span&gt;&lt;/h1&gt;&lt;h1 style=&quot;line-height: 30%; font-size: 13px;&quot;&gt;&lt;span style=&quot;font-weight: 400;&quot;&gt;&lt;font style=&quot;font-size: 13px;&quot;&gt;&amp;nbsp; &amp;nbsp; &amp;lt;pvd5&amp;gt;349.51&amp;lt;/pvd5&amp;gt;&lt;/font&gt;&lt;/span&gt;&lt;/h1&gt;&lt;h1 style=&quot;line-height: 30%; font-size: 13px;&quot;&gt;&lt;span style=&quot;font-weight: 400;&quot;&gt;&lt;font style=&quot;font-size: 13px;&quot;&gt;&amp;nbsp; &amp;nbsp; &amp;lt;!-- Precio Especial [pe] --&amp;gt;&lt;/font&gt;&lt;/span&gt;&lt;/h1&gt;&lt;h1 style=&quot;line-height: 30%; font-size: 13px;&quot;&gt;&lt;span style=&quot;font-weight: 400;&quot;&gt;&lt;font style=&quot;font-size: 13px;&quot;&gt;&amp;nbsp; &amp;nbsp; &amp;lt;especialPrice&amp;gt;0&amp;lt;/especialPrice&amp;gt;&lt;/font&gt;&lt;/span&gt;&lt;/h1&gt;&lt;h1 style=&quot;line-height: 30%; font-size: 13px;&quot;&gt;&lt;span style=&quot;font-weight: 400;&quot;&gt;&lt;font style=&quot;font-size: 13px;&quot;&gt;&amp;nbsp; &amp;nbsp; &amp;lt;!-- Precio de Aportación [pa] --&amp;gt;&lt;/font&gt;&lt;/span&gt;&lt;/h1&gt;&lt;h1 style=&quot;line-height: 30%; font-size: 13px;&quot;&gt;&lt;span style=&quot;font-weight: 400;&quot;&gt;&lt;font style=&quot;font-size: 13px;&quot;&gt;&amp;nbsp; &amp;nbsp; &amp;lt;contributionPrice&amp;gt;0&amp;lt;/contributionPrice&amp;gt;&lt;/font&gt;&lt;/span&gt;&lt;/h1&gt;&lt;h1 style=&quot;line-height: 30%; font-size: 13px;&quot;&gt;&lt;span style=&quot;font-weight: 400;&quot;&gt;&lt;font style=&quot;font-size: 13px;&quot;&gt;&amp;nbsp; &amp;nbsp; &amp;lt;!-- Precio de Promo [pp] --&amp;gt;&lt;/font&gt;&lt;/span&gt;&lt;/h1&gt;&lt;h1 style=&quot;line-height: 30%; font-size: 13px;&quot;&gt;&lt;span style=&quot;font-weight: 400;&quot;&gt;&lt;font style=&quot;font-size: 13px;&quot;&gt;&amp;nbsp; &amp;nbsp; &amp;lt;promoPrice&amp;gt;0&amp;lt;/promoPrice&amp;gt;&lt;/font&gt;&lt;/span&gt;&lt;/h1&gt;&lt;h1 style=&quot;line-height: 30%; font-size: 13px;&quot;&gt;&lt;span style=&quot;font-weight: 400;&quot;&gt;&lt;font style=&quot;font-size: 13px;&quot;&gt;&amp;nbsp; &amp;nbsp; &amp;lt;!-- Precio de Compra Real [pcr] --&amp;gt;&lt;/font&gt;&lt;/span&gt;&lt;/h1&gt;&lt;h1 style=&quot;line-height: 30%; font-size: 13px;&quot;&gt;&lt;span style=&quot;font-weight: 400;&quot;&gt;&lt;font style=&quot;font-size: 13px;&quot;&gt;&amp;nbsp; &amp;nbsp; &amp;lt;realPurchasePrice&amp;gt;301.98&amp;lt;/realPurchasePrice&amp;gt;&lt;/font&gt;&lt;/span&gt;&lt;/h1&gt;&lt;h1 style=&quot;line-height: 30%; font-size: 13px;&quot;&gt;&lt;span style=&quot;font-weight: 400;&quot;&gt;&lt;font style=&quot;font-size: 13px;&quot;&gt;&amp;nbsp; &amp;nbsp; &amp;lt;!-- Precio medio de compra [pm] --&amp;gt;&lt;/font&gt;&lt;/span&gt;&lt;/h1&gt;&lt;h1 style=&quot;line-height: 30%; font-size: 13px;&quot;&gt;&lt;span style=&quot;font-weight: 400;&quot;&gt;&lt;font style=&quot;font-size: 13px;&quot;&gt;&amp;nbsp; &amp;nbsp; &amp;lt;averagePurchasePrice&amp;gt;301.98&amp;lt;/averagePurchasePrice&amp;gt;&lt;/font&gt;&lt;/span&gt;&lt;/h1&gt;&lt;h1 style=&quot;line-height: 30%; font-size: 13px;&quot;&gt;&lt;span style=&quot;font-weight: 400;&quot;&gt;&lt;font style=&quot;font-size: 13px;&quot;&gt;&amp;nbsp; &amp;nbsp; &amp;lt;!-- Canon Digital --&amp;gt;&lt;/font&gt;&lt;/span&gt;&lt;/h1&gt;&lt;h1 style=&quot;line-height: 30%; font-size: 13px;&quot;&gt;&lt;span style=&quot;font-weight: 400;&quot;&gt;&lt;font style=&quot;font-size: 13px;&quot;&gt;&amp;nbsp; &amp;nbsp; &amp;lt;digitalCanon&amp;gt;0&amp;lt;/digitalCanon&amp;gt;&lt;/font&gt;&lt;/span&gt;&lt;/h1&gt;&lt;h1 style=&quot;line-height: 30%; font-size: 13px;&quot;&gt;&lt;span style=&quot;font-weight: 400;&quot;&gt;&lt;font style=&quot;font-size: 13px;&quot;&gt;&amp;nbsp; &amp;nbsp;&amp;nbsp;&lt;/font&gt;&lt;/span&gt;&lt;/h1&gt;&lt;h1 style=&quot;line-height: 30%; font-size: 13px;&quot;&gt;&lt;span style=&quot;font-weight: 400;&quot;&gt;&lt;font style=&quot;font-size: 13px;&quot;&gt;&amp;nbsp; &amp;nbsp; &amp;lt;!-- reverse Charge Procedure: Inversión del sujeto pasivo (ISP).--&amp;gt;&lt;/font&gt;&lt;/span&gt;&lt;/h1&gt;&lt;h1 style=&quot;line-height: 30%; font-size: 13px;&quot;&gt;&lt;span style=&quot;font-weight: 400;&quot;&gt;&lt;font style=&quot;font-size: 13px;&quot;&gt;&amp;nbsp; &amp;nbsp; &amp;lt;reverseChargeProcedure&amp;gt;0&amp;lt;/reverseChargeProcedure&amp;gt;&lt;/font&gt;&lt;/span&gt;&lt;/h1&gt;&lt;h1 style=&quot;line-height: 30%; font-size: 13px;&quot;&gt;&lt;span style=&quot;font-weight: 400;&quot;&gt;&lt;font style=&quot;font-size: 13px;&quot;&gt;&lt;br&gt;&lt;/font&gt;&lt;/span&gt;&lt;/h1&gt;&lt;h1 style=&quot;line-height: 30%; font-size: 13px;&quot;&gt;&lt;span style=&quot;font-weight: 400;&quot;&gt;&lt;font style=&quot;font-size: 13px;&quot;&gt;&amp;nbsp; &amp;nbsp; &amp;lt;!-- NUEVOS CAMPOS --&amp;gt;&lt;/font&gt;&lt;/span&gt;&lt;/h1&gt;&lt;h1 style=&quot;line-height: 30%; font-size: 13px;&quot;&gt;&lt;span style=&quot;font-weight: 400;&quot;&gt;&lt;font style=&quot;font-size: 13px;&quot;&gt;&amp;nbsp; &amp;nbsp; &amp;lt;!-- Para el calculo de las tarifas son necesarios 2 atributos más en los productos. --&amp;gt;&lt;/font&gt;&lt;/span&gt;&lt;/h1&gt;&lt;h1 style=&quot;line-height: 30%; font-size: 13px;&quot;&gt;&lt;span style=&quot;font-weight: 400;&quot;&gt;&lt;font style=&quot;font-size: 13px;&quot;&gt;&amp;nbsp; &amp;nbsp; &amp;lt;!-- Un producto en nuestro ERP admite 4 subfamilias (no están jerarquizadas). --&amp;gt;&lt;/font&gt;&lt;/span&gt;&lt;/h1&gt;&lt;h1 style=&quot;line-height: 30%; font-size: 13px;&quot;&gt;&lt;span style=&quot;font-weight: 400;&quot;&gt;&lt;font style=&quot;font-size: 13px;&quot;&gt;&amp;nbsp; &amp;nbsp; &amp;lt;!-- La subfamilia 1 en el ERP se usa para denominar la marca en el portal, --&amp;gt;&lt;/font&gt;&lt;/span&gt;&lt;/h1&gt;&lt;h1 style=&quot;line-height: 30%; font-size: 13px;&quot;&gt;&lt;span style=&quot;font-weight: 400;&quot;&gt;&lt;font style=&quot;font-size: 13px;&quot;&gt;&amp;nbsp; &amp;nbsp; &amp;lt;!-- la subfamilia 2 en el ERP para la subfamilia en el portal --&amp;gt;&lt;/font&gt;&lt;/span&gt;&lt;/h1&gt;&lt;h1 style=&quot;line-height: 30%; font-size: 13px;&quot;&gt;&lt;span style=&quot;font-weight: 400;&quot;&gt;&lt;font style=&quot;font-size: 13px;&quot;&gt;&amp;nbsp; &amp;nbsp; &amp;lt;!-- las SF3 y SF4 no se muestran en el portal, pero son necesarias para el calculo de la tarifa de un cliente --&amp;gt;&lt;/font&gt;&lt;/span&gt;&lt;/h1&gt;&lt;h1 style=&quot;line-height: 30%; font-size: 13px;&quot;&gt;&lt;span style=&quot;font-weight: 400;&quot;&gt;&lt;font style=&quot;font-size: 13px;&quot;&gt;&amp;nbsp; &amp;nbsp; &amp;lt;!-- Para el calculo de las tarifas en el ERP son necesarias esas 4 subfamilias o atributos --&amp;gt;&lt;/font&gt;&lt;/span&gt;&lt;/h1&gt;&lt;h1 style=&quot;line-height: 30%; font-size: 13px;&quot;&gt;&lt;span style=&quot;font-weight: 400;&quot;&gt;&lt;font style=&quot;font-size: 13px;&quot;&gt;&amp;nbsp; &amp;nbsp; &amp;lt;!-- filterProducts N1 y N2 corresponderían a dos filtros más disponibles en la tabla de productos y necesarios para el cálculo de una tarifa; --&amp;gt;&lt;/font&gt;&lt;/span&gt;&lt;/h1&gt;&lt;h1 style=&quot;line-height: 30%; font-size: 13px;&quot;&gt;&lt;span style=&quot;font-weight: 400;&quot;&gt;&lt;font style=&quot;font-size: 13px;&quot;&gt;&amp;nbsp; &amp;nbsp; &amp;lt;!-- corresponderían con las SF3 y SF4 en el tabla de productos del ERP --&amp;gt;&lt;/font&gt;&lt;/span&gt;&lt;/h1&gt;&lt;h1 style=&quot;line-height: 30%; font-size: 13px;&quot;&gt;&lt;span style=&quot;font-weight: 400;&quot;&gt;&lt;font style=&quot;font-size: 13px;&quot;&gt;&amp;nbsp; &amp;nbsp; &amp;lt;priceModulators&amp;gt;&lt;/font&gt;&lt;/span&gt;&lt;/h1&gt;&lt;h1 style=&quot;line-height: 30%; font-size: 13px;&quot;&gt;&lt;span style=&quot;font-weight: 400;&quot;&gt;&lt;font style=&quot;font-size: 13px;&quot;&gt;&amp;nbsp; &amp;nbsp; &amp;nbsp; &amp;nbsp; &amp;lt;priceModulator1&amp;gt;&lt;/font&gt;&lt;/span&gt;&lt;/h1&gt;&lt;h1 style=&quot;line-height: 30%; font-size: 13px;&quot;&gt;&lt;span style=&quot;font-weight: 400;&quot;&gt;&lt;font style=&quot;font-size: 13px;&quot;&gt;&amp;nbsp; &amp;nbsp; &amp;nbsp; &amp;nbsp; &amp;nbsp; &amp;nbsp; &amp;lt;codMyrtus /&amp;gt;&lt;/font&gt;&lt;/span&gt;&lt;/h1&gt;&lt;h1 style=&quot;line-height: 30%; font-size: 13px;&quot;&gt;&lt;span style=&quot;font-weight: 400;&quot;&gt;&lt;font style=&quot;font-size: 13px;&quot;&gt;&amp;nbsp; &amp;nbsp; &amp;nbsp; &amp;nbsp; &amp;lt;/priceModulator1&amp;gt;&lt;/font&gt;&lt;/span&gt;&lt;/h1&gt;&lt;h1 style=&quot;line-height: 30%; font-size: 13px;&quot;&gt;&lt;span style=&quot;font-weight: 400;&quot;&gt;&lt;font style=&quot;font-size: 13px;&quot;&gt;&amp;nbsp; &amp;nbsp; &amp;nbsp; &amp;nbsp; &amp;lt;priceModulator2&amp;gt;&lt;/font&gt;&lt;/span&gt;&lt;/h1&gt;&lt;h1 style=&quot;line-height: 30%; font-size: 13px;&quot;&gt;&lt;span style=&quot;font-weight: 400;&quot;&gt;&lt;font style=&quot;font-size: 13px;&quot;&gt;&amp;nbsp; &amp;nbsp; &amp;nbsp; &amp;nbsp; &amp;nbsp; &amp;nbsp; &amp;lt;codMyrtus /&amp;gt;&lt;/font&gt;&lt;/span&gt;&lt;/h1&gt;&lt;h1 style=&quot;line-height: 30%; font-size: 13px;&quot;&gt;&lt;span style=&quot;font-weight: 400;&quot;&gt;&lt;font style=&quot;font-size: 13px;&quot;&gt;&amp;nbsp; &amp;nbsp; &amp;nbsp; &amp;nbsp; &amp;lt;/priceModulator2&amp;gt;&lt;/font&gt;&lt;/span&gt;&lt;/h1&gt;&lt;h1 style=&quot;line-height: 30%; font-size: 13px;&quot;&gt;&lt;span style=&quot;font-weight: 400;&quot;&gt;&lt;font style=&quot;font-size: 13px;&quot;&gt;&amp;nbsp; &amp;nbsp; &amp;lt;/priceModulators&amp;gt;&lt;/font&gt;&lt;/span&gt;&lt;/h1&gt;&lt;h1 style=&quot;line-height: 30%; font-size: 13px;&quot;&gt;&lt;span style=&quot;font-weight: 400;&quot;&gt;&lt;font style=&quot;font-size: 13px;&quot;&gt;&amp;lt;/price&amp;gt;&lt;/font&gt;&lt;/span&gt;&lt;/h1&gt;" style="text;html=1;strokeColor=#666666;fillColor=#f5f5f5;spacing=5;spacingTop=-20;whiteSpace=wrap;overflow=hidden;rounded=0;fontColor=#333333;" vertex="1" parent="1">
          <mxGeometry x="760" y="-1550" width="700" height="670" as="geometry" />
        </mxCell>
        <mxCell id="yF8zC-Vedh16o82l2wIE-40" value="" style="edgeStyle=orthogonalEdgeStyle;rounded=0;orthogonalLoop=1;jettySize=auto;html=1;exitX=1;exitY=0.5;exitDx=0;exitDy=0;" edge="1" parent="1" source="yF8zC-Vedh16o82l2wIE-27" target="yF8zC-Vedh16o82l2wIE-39">
          <mxGeometry relative="1" as="geometry">
            <mxPoint x="778.8" y="453" as="sourcePoint" />
          </mxGeometry>
        </mxCell>
        <mxCell id="yF8zC-Vedh16o82l2wIE-41" value="Sí" style="edgeLabel;html=1;align=center;verticalAlign=middle;resizable=0;points=[];" vertex="1" connectable="0" parent="yF8zC-Vedh16o82l2wIE-40">
          <mxGeometry x="0.0536" y="4" relative="1" as="geometry">
            <mxPoint as="offset" />
          </mxGeometry>
        </mxCell>
        <mxCell id="yF8zC-Vedh16o82l2wIE-27" value="&lt;h1 style=&quot;border-color: var(--border-color); text-align: left;&quot;&gt;&lt;font style=&quot;font-size: 12px;&quot;&gt;[CondiciónMarcas]&lt;/font&gt;&lt;/h1&gt;" style="rhombus;whiteSpace=wrap;html=1;fillColor=#fff2cc;strokeColor=#d6b656;" vertex="1" parent="1">
          <mxGeometry x="678.8" y="415" width="109.29" height="75" as="geometry" />
        </mxCell>
        <mxCell id="yF8zC-Vedh16o82l2wIE-34" value="product.realPurchasePrice / (100 +&lt;font color=&quot;#f19c99&quot;&gt;discount&lt;/font&gt;.discount/100)" style="whiteSpace=wrap;html=1;fillColor=#d5e8d4;strokeColor=#82b366;" vertex="1" parent="1">
          <mxGeometry x="868.8" y="450" width="360" height="50" as="geometry" />
        </mxCell>
        <mxCell id="yF8zC-Vedh16o82l2wIE-35" style="edgeStyle=orthogonalEdgeStyle;rounded=0;orthogonalLoop=1;jettySize=auto;html=1;entryX=0;entryY=0.5;entryDx=0;entryDy=0;exitX=1;exitY=0.5;exitDx=0;exitDy=0;" edge="1" parent="1" target="yF8zC-Vedh16o82l2wIE-34" source="yF8zC-Vedh16o82l2wIE-27">
          <mxGeometry relative="1" as="geometry">
            <mxPoint x="792.8" y="453" as="sourcePoint" />
          </mxGeometry>
        </mxCell>
        <mxCell id="yF8zC-Vedh16o82l2wIE-36" value="No" style="edgeLabel;html=1;align=center;verticalAlign=middle;resizable=0;points=[];" vertex="1" connectable="0" parent="yF8zC-Vedh16o82l2wIE-35">
          <mxGeometry x="0.3483" relative="1" as="geometry">
            <mxPoint as="offset" />
          </mxGeometry>
        </mxCell>
        <mxCell id="yF8zC-Vedh16o82l2wIE-39" value="&lt;p style=&quot;line-height: 0%;&quot; class=&quot;MsoNormal&quot;&gt;&lt;font face=&quot;Helvetica&quot;&gt;(product.realPurchasePrice&amp;nbsp;&lt;/font&gt;&lt;/p&gt;+ product.contributionPrice + product.promoPrice&lt;span style=&quot;background-color: initial;&quot;&gt;) / (100 + &lt;font color=&quot;#f19c99&quot;&gt;discount&lt;/font&gt;.discount/100))&lt;/span&gt;" style="whiteSpace=wrap;html=1;fillColor=#d5e8d4;strokeColor=#82b366;" vertex="1" parent="1">
          <mxGeometry x="868.8" y="385" width="360" height="50" as="geometry" />
        </mxCell>
        <mxCell id="yF8zC-Vedh16o82l2wIE-47" style="edgeStyle=orthogonalEdgeStyle;rounded=0;orthogonalLoop=1;jettySize=auto;html=1;entryX=0;entryY=0.5;entryDx=0;entryDy=0;" edge="1" parent="1" source="yF8zC-Vedh16o82l2wIE-42" target="yF8zC-Vedh16o82l2wIE-46">
          <mxGeometry relative="1" as="geometry" />
        </mxCell>
        <mxCell id="yF8zC-Vedh16o82l2wIE-42" value="&lt;h1 style=&quot;border-color: var(--border-color); text-align: left;&quot;&gt;&lt;font style=&quot;font-size: 12px;&quot;&gt;tierPriceEntry.discount&amp;gt;0&lt;/font&gt;&lt;/h1&gt;" style="rhombus;whiteSpace=wrap;html=1;fillColor=#e1d5e7;strokeColor=#9673a6;" vertex="1" parent="1">
          <mxGeometry x="443.1600000000001" y="120" width="168.93" height="75" as="geometry" />
        </mxCell>
        <mxCell id="yF8zC-Vedh16o82l2wIE-51" style="edgeStyle=orthogonalEdgeStyle;rounded=0;orthogonalLoop=1;jettySize=auto;html=1;entryX=0;entryY=0.5;entryDx=0;entryDy=0;" edge="1" parent="1" source="yF8zC-Vedh16o82l2wIE-46" target="yF8zC-Vedh16o82l2wIE-50">
          <mxGeometry relative="1" as="geometry" />
        </mxCell>
        <mxCell id="yF8zC-Vedh16o82l2wIE-52" value="Sï" style="edgeLabel;html=1;align=center;verticalAlign=middle;resizable=0;points=[];" vertex="1" connectable="0" parent="yF8zC-Vedh16o82l2wIE-51">
          <mxGeometry x="0.66" y="3" relative="1" as="geometry">
            <mxPoint as="offset" />
          </mxGeometry>
        </mxCell>
        <mxCell id="yF8zC-Vedh16o82l2wIE-53" style="edgeStyle=orthogonalEdgeStyle;rounded=0;orthogonalLoop=1;jettySize=auto;html=1;entryX=0;entryY=0.5;entryDx=0;entryDy=0;" edge="1" parent="1" source="yF8zC-Vedh16o82l2wIE-46" target="yF8zC-Vedh16o82l2wIE-49">
          <mxGeometry relative="1" as="geometry" />
        </mxCell>
        <mxCell id="yF8zC-Vedh16o82l2wIE-54" value="No" style="edgeLabel;html=1;align=center;verticalAlign=middle;resizable=0;points=[];" vertex="1" connectable="0" parent="yF8zC-Vedh16o82l2wIE-53">
          <mxGeometry x="0.7028" y="1" relative="1" as="geometry">
            <mxPoint as="offset" />
          </mxGeometry>
        </mxCell>
        <mxCell id="yF8zC-Vedh16o82l2wIE-46" value="&lt;h1 style=&quot;border-color: var(--border-color); text-align: left;&quot;&gt;&lt;font style=&quot;font-size: 12px;&quot;&gt;[CondiciónMarcas]&lt;/font&gt;&lt;/h1&gt;" style="rhombus;whiteSpace=wrap;html=1;fillColor=#fff2cc;strokeColor=#d6b656;" vertex="1" parent="1">
          <mxGeometry x="683.8" y="80" width="109.29" height="75" as="geometry" />
        </mxCell>
        <mxCell id="yF8zC-Vedh16o82l2wIE-49" value="&lt;p style=&quot;line-height: 0%;&quot; class=&quot;MsoNormal&quot;&gt;&lt;font color=&quot;#cc99ff&quot;&gt;tierPriceEntry&lt;/font&gt;.price - product.contributionPrice - product.promoPrice&lt;/p&gt;" style="whiteSpace=wrap;html=1;fillColor=#d5e8d4;strokeColor=#82b366;" vertex="1" parent="1">
          <mxGeometry x="880" y="120" width="421.2" height="50" as="geometry" />
        </mxCell>
        <mxCell id="yF8zC-Vedh16o82l2wIE-50" value="&lt;p style=&quot;line-height: 0%;&quot; class=&quot;MsoNormal&quot;&gt;&lt;font color=&quot;#cc99ff&quot;&gt;tierPriceEntry&lt;/font&gt;.price + product.contributionPrice + product.promoPrice&lt;/p&gt;" style="whiteSpace=wrap;html=1;fillColor=#d5e8d4;strokeColor=#82b366;" vertex="1" parent="1">
          <mxGeometry x="880" y="50" width="421.2" height="50" as="geometry" />
        </mxCell>
      </root>
    </mxGraphModel>
  </diagram>
</mxfile>
